<?xml version="1.0" encoding="UTF-8"?>
<svg version="1.1" viewBox="0 0 2012 1992" width="1280" height="1280" xmlns="http://www.w3.org/2000/svg">
<path transform="translate(0)" d="m0 0h2012v1992h-2012z" fill="#FBFBFB"/>
<path transform="translate(1184,365)" d="m0 0h157l-5 5-11 8-17 11-18 12-16 11-43 29-30 20-19 13-21 14-13 9-11 7-15 10-16 11-42 28-16 11-12 8-25 17-33 22-16 11-11 7-14 9-4 3 2 4 6 4 28 19 45 30 16 11 25 17 16 11 138 92 28 19 21 14 28 19 39 26 14 10-1 2h-153l-7-3-18-12-16-10-24-16-17-11-27-18-11-7-9-6-11-7-10-7-10-6-21-14-34-22-33-22-17-11-21-14-11-7-10-7-16-10-18-12-16-10-15-10-14-9-31-20-7-5v-3l11-6 39-26 17-11 23-15 45-30 17-11 33-22 20-13 15-10 16-10 36-24 60-39 15-10 8-6 11-6 11-8 11-7 16-11 14-9z" fill="#E31C26"/>
<path transform="translate(526,1077)" d="m0 0h18l10 2 10 4 15 11 1-10 2-1h9l10 1 1 26v92l-21 1-2-2v-9l-12 9-12 5-9 2h-21l-15-4-12-6-12-11-7-9-7-14-3-12v-18l4-15 6-12 9-11 10-8 10-6 12-4z" fill="#060101"/>
<path transform="translate(1528,1077)" d="m0 0h18l16 4 8 4 9 7h2l3-9h10l10 1v118l-5 1h-14l-3-2-1-7-4 2-11 7-11 4-5 1h-22l-13-3-14-7-10-8-10-13-6-12-3-11-1-12 2-14 4-12 5-9 11-13 12-9 14-6z" fill="#040101"/>
<path transform="translate(1065,1077)" d="m0 0h18l10 2 10 4 14 9h1l1-7 2-2 20 1v118l-18 1-3-1-1-9-7 4-9 6-12 4-5 1h-21l-13-3-14-7-11-9-8-10-8-17-2-8-1-12 2-15 5-13 6-10 9-10 12-9 11-5z" fill="#040101"/>
<path transform="translate(795,1077)" d="m0 0h19l16 4 11 7 8 5 1-10h10l11 1v118l-19 1-3-2-1-7h-2l-10 8-11 4-8 2-13 1-14-2-12-4-13-7-10-9-7-10-5-10-3-9-1-5v-19l4-16 9-15 9-10 15-10 10-4z" fill="#040101"/>
<path transform="translate(1368,1076)" d="m0 0 14 1 12 3 14 7 11 9 8 10 8 17 2 11v18h-107l8 16 9 10 7 4 8 3 5 1h10l13-4 9-6 9-9 1-2 5 1 8 7 4 2 1 3-4 6-9 10-14 9-10 4-8 2h-19l-15-4-12-6-13-12-7-10-5-11-4-16v-14l4-17 6-12 8-10 10-9 10-6 11-4z" fill="#050101"/>
<path transform="translate(1764,1079)" d="m0 0h22l12 4 11 6 6 5-1 4-9 12-4 1-11-7-6-2-13-1-12 3-6 5-2 5 1 6 7 5 31 7 10 3 11 6 8 9 4 13v8l-3 10-6 10-7 7-12 6-14 3h-14l-16-3-15-6-6-4 1-6 9-12 6 1 8 4 13 3h15l9-3 7-6 1-2v-10l-2-4-12-5-30-7-12-5-7-6-5-7-2-6-1-9 2-10 5-9 8-8 12-6z" fill="#050101"/>
<path transform="translate(429 1e3)" d="m0 0h29l-4 6-11 13-11 14-11 13-11 14-13 16-11 14-9 11 1 4 9 11 22 28 11 13 8 10 13 16 16 20v2h-28l-5-5-13-16-8-10-13-16-9-11-13-16-11-14-10-11-1-5 12-14 11-14 36-44 11-14 12-14z" fill="#040101"/>
<path transform="translate(1529,1100)" d="m0 0h18l12 4 9 7 8 9 5 13 1 5v10l-3 12-7 11-10 9-8 4-8 2h-16l-10-3-10-6-9-10-5-10-2-9v-9l3-12 6-11 8-8 14-7z" fill="#FBFBFB"/>
<path transform="translate(803,1099)" d="m0 0 11 1 12 4 11 8 6 8 5 12 1 5v12l-2 9-6 11-9 9-9 5-10 3h-17l-11-4-10-7-7-9-5-10-1-4v-18l5-13 9-11 9-6 11-4z" fill="#FBFBFB"/>
<path transform="translate(527,1100)" d="m0 0h18l11 4 11 8 7 10 5 13v16l-4 12-8 11-11 8-12 4h-17l-9-3-8-4-8-7-8-14-2-6v-17l4-11 7-11 10-8 10-4z" fill="#FBFBFB"/>
<path transform="translate(1066,1100)" d="m0 0h17l13 4 8 6 7 7 5 10 3 12v8l-3 12-7 12-9 8-10 5-8 2h-15l-10-3-10-6-8-9-6-12-2-8v-9l3-11 6-12 8-8 14-7z" fill="#FBFBFB"/>
<path transform="translate(280 1e3)" d="m0 0h24v205h-24z" fill="#090202"/>
<path transform="translate(1653,1041)" d="m0 0h22v35h29v22l-1 1h-28v108l-1 1h-21z" fill="#080102"/>
<path transform="translate(695,1078)" d="m0 0 14 1 11 4v5l-3 9-3 7-12-2h-9l-11 4-6 5h-2l-2 4-4 7-2 7-1 78h-22v-124l17-1 3 1 2 6 7-3 5-4 9-3z" fill="#030101"/>
<path transform="translate(964,1078)" d="m0 0 14 1 10 3 2 2-1 5-4 13-2 2-11-2h-10l-10 4-9 7-6 10-1 8-1 76h-22v-124h20l3 5 5-1 6-5 8-3z" fill="#020101"/>
<path transform="translate(1366,1099)" d="m0 0h13l10 3 10 6 7 7 6 9 1 6h-81l1-5 4-7 9-10 9-6z" fill="#FBFBFB"/>
</svg>
